<svg xmlns="http://www.w3.org/2000/svg" width="15" height="15" shape-rendering="geometricPrecision" text-rendering="geometricPrecision" image-rendering="optimizeQuality" fill-rule="evenodd" clip-rule="evenodd">
  <path fill="#fff" d="M3.98 8.8l-.43.43.43-.43c.33.34.46.81.39 1.25L3.91 13l2.43-1.36.01-.01h.01c.39-.21.89-.24 1.33.01l2.44 1.34-.49-2.94c-.07-.44.06-.91.39-1.26l2.06-2.13-2.81-.42h-.02c-.46-.08-.85-.38-1.05-.8l-1.22-2.6-1.2 2.6c-.2.44-.6.73-1.05.81h-.01l-2.82.44L3.98 8.8zm3.01-5.97l.02.73-.02-.73z"/>
  <path fill="none" stroke="#FF5D00" stroke-width="1.77" stroke-miterlimit="22.9256" d="M3.98 8.8l-.43.43.43-.43h0c.33.34.46.81.39 1.25h0L3.91 13l2.43-1.36.01-.01h.01c.39-.21.89-.24 1.33.01l2.44 1.34-.49-2.94c-.07-.44.06-.91.39-1.26 0 0 0 0 0 0l2.06-2.13-2.81-.42h-.02c-.46-.08-.85-.38-1.05-.8h0l-1.22-2.6-1.2 2.6c-.2.44-.6.73-1.05.81h-.01 0l-2.82.44L3.98 8.8m3.01-5.97l.02.73-.02-.73z"/>
</svg>
